<?xml version="1.0" standalone="no"?>
<!DOCTYPE svg PUBLIC "-//W3C//DTD SVG 20010904//EN"
 "http://www.w3.org/TR/2001/REC-SVG-20010904/DTD/svg10.dtd">
<svg version="1.0" xmlns="http://www.w3.org/2000/svg"
 width="77.000000pt" height="77.000000pt" viewBox="0 0 77.000000 77.000000"
 preserveAspectRatio="xMidYMid meet">
<metadata>
Created by potrace 1.11, written by Peter Selinger 2001-2013
</metadata>
<g transform="translate(0.000000,77.000000) scale(0.100000,-0.100000)"
fill="#000000" stroke="none">
<path d="M72 548 c-1 -34 2 -58 8 -58 6 0 20 -12 33 -26 12 -14 38 -34 57 -44
19 -10 44 -27 54 -39 23 -26 41 -27 58 -3 7 10 26 22 41 26 28 7 46 31 32 44
-4 4 -10 1 -12 -5 -3 -7 -17 -13 -33 -13 -30 0 -56 23 -45 40 10 17 25 11 25
-10 0 -13 5 -18 16 -13 10 3 13 11 8 22 -4 9 -7 26 -7 39 1 21 -1 22 -16 8 -9
-8 -28 -18 -43 -21 -35 -9 -35 -25 -2 -64 21 -26 23 -31 9 -31 -9 0 -29 8 -43
19 -15 10 -32 20 -38 22 -6 2 -30 21 -52 41 -33 30 -42 45 -45 80 -3 38 -4 36
-5 -14z"/>
<path d="M290 576 c0 -2 11 -6 25 -8 13 -3 22 -1 19 3 -5 9 -44 13 -44 5z"/>
<path d="M438 573 c7 -3 16 -2 19 1 4 3 -2 6 -13 5 -11 0 -14 -3 -6 -6z"/>
<path d="M342 520 c0 -14 2 -19 5 -12 2 6 2 18 0 25 -3 6 -5 1 -5 -13z"/>
<path d="M446 487 c-4 -19 -2 -33 4 -35 20 -7 10 -23 -12 -20 -17 2 -25 12
-29 38 -6 33 -6 32 -8 -12 -1 -46 0 -47 34 -54 19 -3 35 -12 35 -19 0 -22 32
-26 57 -8 14 10 40 27 58 38 19 12 44 32 58 46 13 15 29 28 37 31 8 2 10 9 6
17 -6 9 -18 4 -45 -21 -37 -36 -121 -88 -141 -88 -6 0 1 17 15 37 29 44 31 53
10 53 -9 0 -29 7 -44 15 -28 14 -29 14 -35 -18z m49 -27 c0 -7 -6 -15 -12 -17
-8 -3 -13 4 -13 17 0 13 5 20 13 18 6 -3 12 -11 12 -18z"/>
</g>
</svg>
